PathFileType	4	(X/Y/Z)	Patient4_TMGait_0pt4_01_right_39.trc.trc
DataRate	CameraRate	NumFrames	NumMarkers	Units	OrigDataRate	OrigDataStartFrame	OrigNumFrames
74.866310160428	74.866310160428	4	33	mm	74.866310160428	89	       141
Frame#	Time	Sacral			L.Shoulder			Chest			R.Shoulder			Neck			R.ASIS			L.ASIS			R.Thigh.Superior			R.Thigh.Lateral			R.Thigh.Inferior			R.Patella			L.Thigh.Superior			L.Thigh.Lateral			L.Thigh.Inferior			L.Patella			L.Shank.Superior			L.Shank.Lateral			L.Shank.Inferior			R.Shank.Superior			R.Shank.Lateral			R.Shank.Inferior			R.Heel			R.Midfoot.Superior			R.Midfoot.Lateral			R.Toe			L.Heel			L.Midfoot.Lateral			L.Midfoot.Superior			L.Toe			L.Elbow			L.Wrist			R.Elbow			R.Wrist			
		X1	Y1	Z1	X2	Y2	Z2	X3	Y3	Z3	X4	Y4	Z4	X5	Y5	Z5	X6	Y6	Z6	X7	Y7	Z7	X8	Y8	Z8	X9	Y9	Z9	X10	Y10	Z10	X11	Y11	Z11	X12	Y12	Z12	X13	Y13	Z13	X14	Y14	Z14	X15	Y15	Z15	X16	Y16	Z16	X17	Y17	Z17	X18	Y18	Z18	X19	Y19	Z19	X20	Y20	Z20	X21	Y21	Z21	X22	Y22	Z22	X23	Y23	Z23	X24	Y24	Z24	X25	Y25	Z25	X26	Y26	Z26	X27	Y27	Z27	X28	Y28	Z28	X29	Y29	Z29	X30	Y30	Z30	X31	Y31	Z31	X32	Y32	Z32	X33	Y33	Z33	

89	52.035428571429	855.708873038252	1011.660868252887	466.818076064019	1015.326746401462	1433.581045504353	257.792863034566	1134.659749155011	1372.105609083958	409.920640462831	1067.263625211028	1451.087479796032	588.747001434344	1008.966490283259	1498.138776698656	413.792812319268	1090.176346670509	946.816979318028	565.948662096396	1058.558031053605	963.788385514679	294.799456962201	1128.319775799272	742.750958702748	543.268528941045	1051.553195223504	632.371358599322	612.397828312099	1128.662084962672	575.109984493891	534.553845229665	1122.577985397865	469.218520403614	554.450079059157	1116.299125542660	758.321292224621	316.217057170913	1028.947293222372	638.389580213825	264.588667234545	1123.837380913431	565.551278982084	318.155731053349	1128.209270656031	496.701123945107	326.946474254394	1104.393940051655	423.659324466183	321.237442474546	1015.947255722174	305.552781653357	276.326875238755	1077.649926538020	196.722074765268	343.950604997407	1052.585702292784	398.051712253680	559.502369214869	938.770762619428	342.609397924771	621.139363926952	937.125964296631	234.618606846592	566.641610402224	744.104551361803	138.001113295582	538.055461716701	920.719925504288	116.884837569971	575.794835783321	814.998305960506	91.739687215036	610.356500133294	1008.575155687666	33.606798262910	600.131232860187	958.130403193328	38.580257971822	391.572928439964	1030.229533580261	35.375458532213	309.053125555867	1113.310655102971	97.287829805196	333.479088714175	1241.706237377256	46.702588919513	303.517030044879	951.238620881925	1081.135750257450	158.951140991537	1020.501058056908	828.645775895369	146.092944555744	1094.142957737192	1104.951361892608	714.782640201689	1247.188900409638	899.270965170365	667.136278537856	
90	52.048785714286	854.114152387217	1011.143968934385	463.930125963647	1016.088204337369	1432.943589075608	254.893454001376	1133.870796145420	1371.749314666048	408.351153230633	1064.799285677547	1450.957509970853	586.479507908562	1008.237260751552	1497.865083215356	410.799270715423	1088.572267828858	946.811725830584	564.559131597236	1058.127985410106	963.639924214102	293.099004773778	1132.459750443525	745.173693297515	541.764445952340	1059.073158161104	633.038647064528	611.128747325492	1138.233739513577	577.336500361983	533.703978302694	1133.696877541754	470.262423377128	553.960155198214	1114.493878302955	757.426829502753	314.068745352759	1026.497244855714	638.203915961999	262.702346665861	1120.641247731645	564.877745563214	316.595282594634	1124.439393279497	496.089569410457	325.514824594063	1100.501569904319	423.075906626794	319.985976859345	1011.739181312732	305.155054969815	275.381357683570	1072.854665091158	196.359318262510	343.486320271232	1061.887731524080	399.487356892520	558.923701874735	946.324915491594	347.668367045033	620.567916255714	941.462614021782	239.598923470387	566.748594165848	745.744708553052	150.616311846421	538.536418989144	921.273763520706	121.451679156793	576.226503780044	814.490860020639	100.882878982279	610.689936803805	1005.091491711345	33.078664152021	600.399665475584	952.688285840630	38.536093315189	391.504121864038	1024.765178999176	35.266799394774	308.942686246807	1107.889318831728	97.108861390773	333.383102162223	1236.301720164590	46.466755974473	303.452699534561	956.613714781366	1080.101653364397	154.109516379470	1032.730719528192	829.409294239650	141.646269050928	1084.114172231579	1104.654405072699	713.685702465787	1228.513355040991	891.521425069098	670.862108262968	
91	52.062142857143	852.445635148851	1010.543884426505	461.209955316026	1016.747941983304	1432.225579322465	252.229979239442	1132.983891638409	1371.324248029212	407.007430515914	1062.250602447019	1450.730530718750	584.449825751769	1007.503966516654	1497.555978431255	408.001725644963	1086.913734981373	946.775371706605	563.276933746418	1057.577818991001	963.511795436397	291.483520887182	1136.319963369176	747.789534826125	540.248711055939	1066.430687102401	634.030588846952	609.897675586350	1147.443513798007	579.979257923455	532.765222981572	1144.631241617707	471.874241377027	553.266589163740	1112.753762566709	756.618648507179	312.373614958553	1024.354013457259	638.022562023304	261.004786579370	1117.632793704630	564.230151217693	315.443908028322	1120.870542249282	495.466753173316	324.476797048054	1096.790668136006	422.485183180416	319.044262336322	1007.780243079624	304.788014912485	274.589796611613	1068.169130557561	195.988526173127	343.182439617438	1071.274531516130	401.296273460135	558.235071114462	954.222084414145	352.816189672266	619.945734933589	946.345802306305	244.746485825271	566.752204130647	748.391873231981	162.960841743355	538.957780496456	922.681330361087	126.324446100964	576.643584087223	815.020855320805	110.110708308799	611.010899715448	1002.561858056812	32.783721253762	600.704241035263	947.276675796689	38.498674686717	391.435452484234	1019.334196624690	35.191955383332	308.843543192242	1102.498039191856	96.943785124503	333.326577628731	1230.923180231304	46.237871007590	303.386185842587	962.305739636408	1079.042962883003	149.412609807861	1045.280200548873	830.364260335010	137.403052642946	1073.748122009362	1104.392480683433	712.702857248367	1209.293556012480	884.409531571004	674.928195756273	
92	52.075500000000	850.750372128588	1009.944829581106	458.643752283345	1017.283963419642	1431.515756653548	249.821484495678	1132.004844501072	1370.911044608065	405.881213532505	1059.642124058155	1450.485641232106	582.651126059152	1006.757851931846	1497.279902419566	405.414251375973	1085.198213408897	946.792616895299	562.083349248209	1056.949615082724	963.445335182271	289.960568873592	1139.764536129094	750.615303351605	538.680788562836	1073.470079906105	635.397139023337	608.698658813945	1156.100418640416	583.057854145658	531.707160224015	1155.210924765427	474.068366080326	552.401681761809	1111.117384359362	755.898602586629	311.084786538323	1022.438670520448	637.847389345612	259.540655628481	1114.772785635700	563.598845648869	314.675889738060	1117.468120617913	494.846021638008	323.846215639579	1093.229248850300	421.907705889992	318.428665533717	1004.033931796308	304.468303967438	273.958835964926	1063.576155020290	195.624977180133	343.041720470703	1080.608069564536	403.490849055528	557.471912424291	962.332613982401	357.936950914206	619.286605003080	951.795051618718	249.901937254729	566.679447944646	752.101111827344	174.543662448377	539.320925292354	925.110390818157	131.277291000211	577.042051916223	816.756972440704	119.019919326909	611.318665053100	1001.315458396634	32.793855645355	601.026089449654	941.893584583009	38.470874373258	391.366973732422	1013.936548482762	35.151230455443	308.756872007614	1097.137430777436	96.797760450391	333.307139624259	1225.570984745398	46.019616152977	303.317445024598	968.310579930354	1078.057342531555	144.899811928198	1058.127046302343	831.614057993992	133.436248311262	1063.104638098081	1104.266224408990	711.815313584140	1189.633437959483	878.040399718716	679.279114190453	
